<svg xmlns="http://www.w3.org/2000/svg" width="384" height="384" viewBox="0 0 384 384">
  <g id="clock" transform="translate(0 0)">
    <path id="Path_10" data-name="Path 10" d="M343.594,101.039a16,16,0,0,0-7.434,21.367A158.371,158.371,0,0,1,352,192c0,88.223-71.777,160-160,160S32,280.223,32,192,103.778,32,192,32a158.076,158.076,0,0,1,99.328,34.52,16,16,0,1,0,19.91-25.047A192.318,192.318,0,0,0,192,0C86.137,0,0,86.137,0,192S86.137,384,192,384s192-86.137,192-192a190.04,190.04,0,0,0-19.039-83.527,15.983,15.983,0,0,0-21.367-7.434Zm0,0" fill="#f8f8f8"/>
    <path id="Path_11" data-name="Path 11" d="M192,64a16.006,16.006,0,0,0-16,16V192a16.006,16.006,0,0,0,16,16h80a16,16,0,0,0,0-32H208V80A16.006,16.006,0,0,0,192,64Zm0,0" fill="#f8f8f8"/>
  </g>
</svg>
