<svg xmlns="http://www.w3.org/2000/svg" width="472" height="512" viewBox="0 0 472 512">
  <g id="stopwatch" transform="translate(-20)">
    <g id="Group_4" data-name="Group 4">
      <g id="Group_3" data-name="Group 3">
        <path id="Path_12" data-name="Path 12" d="M391.84,48.87l54.306,45.287a20,20,0,1,0,25.617-30.719L417.457,18.15A20,20,0,1,0,391.84,48.87Z" fill="#f8f8f8"/>
        <path id="Path_13" data-name="Path 13" d="M53.057,98.8a19.916,19.916,0,0,0,12.8-4.641L120.16,48.87A20,20,0,1,0,94.543,18.15L40.237,63.437A20,20,0,0,0,53.057,98.8Z" fill="#f8f8f8"/>
        <path id="Path_14" data-name="Path 14" d="M422.877,109.123A234.221,234.221,0,0,0,276,40.847V20a20,20,0,0,0-40,0V40.847A236,236,0,0,0,89.123,442.877a236.029,236.029,0,0,0,306.741,23.229,20,20,0,1,0-23.729-32.2A194.419,194.419,0,0,1,256,472C147.925,472,60,384.075,60,276S147.925,80,256,80s196,87.925,196,196a196.155,196.155,0,0,1-24.161,94.356,20,20,0,1,0,35.043,19.287,236.123,236.123,0,0,0-40-280.52Z" fill="#f8f8f8"/>
        <path id="Path_15" data-name="Path 15" d="M353.434,155.6a20,20,0,0,0-28.128,2.965l-63.061,77.925a40.038,40.038,0,1,0,31.087,25.171L356.4,183.729A20,20,0,0,0,353.434,155.6Z" fill="#f8f8f8"/>
      </g>
    </g>
  </g>
</svg>
