<svg xmlns="http://www.w3.org/2000/svg" width="425" height="485" viewBox="0 0 425 485">
  <g id="timer" transform="translate(-30)">
    <path id="Path_16" data-name="Path 16" d="M354.176,91.789l13.313-25.4-26.57-13.93L327.628,77.817A210.908,210.908,0,0,0,257.5,60.536V30H305.77V0H179.231V30H227.5V60.537a210.884,210.884,0,0,0-70.127,17.281L144.082,52.465,117.512,66.4l13.313,25.4A212.545,212.545,0,0,0,30,272.5C30,389.673,125.327,485,242.5,485S455,389.673,455,272.5A212.55,212.55,0,0,0,354.176,91.789ZM242.5,455C141.869,455,60,373.131,60,272.5S141.869,90,242.5,90,425,171.869,425,272.5,343.131,455,242.5,455Z" fill="#f8f8f8"/>
    <path id="Path_17" data-name="Path 17" d="M257.5,145h-30V287.5H370v-30H257.5Z" fill="#f8f8f8"/>
  </g>
</svg>
